<?xml version="1.0" standalone="no"?>
<!DOCTYPE svg PUBLIC "-//W3C//DTD SVG 20010904//EN"
 "http://www.w3.org/TR/2001/REC-SVG-20010904/DTD/svg10.dtd">
<svg version="1.0" xmlns="http://www.w3.org/2000/svg"
 width="300.000000pt" height="300.000000pt" viewBox="0 0 300.000000 300.000000"
 preserveAspectRatio="xMidYMid meet">
<metadata>
Created by potrace 1.14, written by Peter Selinger 2001-2017
</metadata>
<g transform="translate(0.000000,300.000000) scale(0.100000,-0.100000)"
fill="#000000" stroke="none">
<path d="M0 1500 l0 -1500 1500 0 1500 0 0 1500 0 1500 -1500 0 -1500 0 0
-1500z m1938 158 c-3 -567 -3 -574 -25 -628 -70 -171 -222 -267 -438 -277
-278 -13 -477 131 -493 359 l-5 69 154 -3 154 -3 5 -35 c14 -86 82 -140 174
-140 68 0 120 32 148 89 23 46 23 49 26 594 l3 547 150 0 150 0 -3 -572z"/>
</g>
</svg>
